<svg width="126" height="28" viewBox="0 0 126 28" fill="none" xmlns="http://www.w3.org/2000/svg">
<path d="M11.7761 18.6029L12.7768 15.4378L14.115 15.6356C14.0995 16.4579 14.0529 17.3462 13.9753 18.3004C13.9055 19.2545 13.7853 20.1544 13.6146 21H0.174614V19.8131L2.03643 19.4873C2.23813 19.4562 2.3894 19.3787 2.49025 19.2545C2.5911 19.1227 2.64152 18.9598 2.64152 18.7658V5.11636C2.64152 4.91467 2.5911 4.75176 2.49025 4.62764C2.3894 4.50352 2.23813 4.42206 2.03643 4.38327L0.174614 4.03418V2.824H8.26189V4.03418L5.84152 4.40655C5.63983 4.43758 5.48467 4.51515 5.37607 4.63927C5.27522 4.76339 5.2248 4.9263 5.2248 5.128V19.5804H8.54116C9.08419 19.5804 9.5768 19.5571 10.019 19.5105C10.4689 19.464 10.8296 19.3903 11.1012 19.2895C11.2796 19.2274 11.4231 19.1421 11.5317 19.0335C11.6403 18.9248 11.7218 18.7813 11.7761 18.6029ZM16.1274 14.4255C16.1274 13.2075 16.2942 12.1525 16.6278 11.2604C16.9691 10.3682 17.4268 9.63903 18.0009 9.07273C18.5749 8.50642 19.2498 8.08752 20.0256 7.816C20.8091 7.54449 21.6392 7.40873 22.5158 7.40873C23.5475 7.40873 24.4397 7.57552 25.1921 7.90909C25.9524 8.23491 26.573 8.69649 27.054 9.29382C27.5427 9.88339 27.9034 10.6048 28.1361 11.4582C28.3689 12.3038 28.4852 13.2424 28.4852 14.2742C28.4852 15.4921 28.3146 16.5472 27.9732 17.4393C27.6397 18.3236 27.1858 19.049 26.6118 19.6153C26.0377 20.1816 25.3589 20.6005 24.5754 20.872C23.7919 21.1435 22.9618 21.2793 22.0852 21.2793C21.0535 21.2793 20.1575 21.1164 19.3972 20.7905C18.6447 20.457 18.028 19.9954 17.547 19.4058C17.0661 18.8085 16.7092 18.087 16.4765 17.2415C16.2438 16.3881 16.1274 15.4495 16.1274 14.4255ZM25.7274 14.5069C25.7274 13.6303 25.6692 12.8352 25.5529 12.1215C25.4443 11.4078 25.2542 10.8027 24.9827 10.3062C24.7112 9.80194 24.3504 9.41406 23.9005 9.14255C23.4506 8.87103 22.8881 8.73527 22.2132 8.73527C21.0806 8.73527 20.2389 9.16582 19.6881 10.0269C19.1451 10.888 18.8736 12.2727 18.8736 14.1811C18.8736 15.0499 18.9279 15.8412 19.0365 16.5549C19.1529 17.2686 19.3429 17.8776 19.6067 18.3818C19.8782 18.8783 20.2389 19.2662 20.6889 19.5455C21.1466 19.817 21.7167 19.9527 22.3994 19.9527C23.5243 19.9527 24.3582 19.5222 24.9012 18.6611C25.452 17.7922 25.7274 16.4075 25.7274 14.5069ZM35.2154 0.450182V18.8822C35.2154 19.0916 35.2697 19.2545 35.3783 19.3709C35.4869 19.4873 35.6421 19.561 35.8438 19.592L37.5311 19.8364V21H30.398V19.8131L32.0852 19.592C32.2869 19.561 32.4421 19.4873 32.5507 19.3709C32.6671 19.2545 32.7253 19.0955 32.7253 18.8938V2.76582C32.7253 2.55636 32.6671 2.39346 32.5507 2.27709C32.4421 2.16073 32.2869 2.08703 32.0852 2.056L30.3165 1.81164V0.741091C30.6501 0.640243 31.0108 0.551031 31.3987 0.473455C31.7866 0.39588 32.1783 0.32994 32.574 0.275637C32.9774 0.221333 33.373 0.178666 33.7609 0.147636C34.1488 0.108849 34.5095 0.0855757 34.8431 0.0778179L35.2154 0.450182ZM43.5904 0.450182V18.8822C43.5904 19.0916 43.6447 19.2545 43.7533 19.3709C43.8619 19.4873 44.0171 19.561 44.2188 19.592L45.9061 19.8364V21H38.773V19.8131L40.4602 19.592C40.6619 19.561 40.8171 19.4873 40.9257 19.3709C41.0421 19.2545 41.1003 19.0955 41.1003 18.8938V2.76582C41.1003 2.55636 41.0421 2.39346 40.9257 2.27709C40.8171 2.16073 40.6619 2.08703 40.4602 2.056L38.6915 1.81164V0.741091C39.0251 0.640243 39.3858 0.551031 39.7737 0.473455C40.1616 0.39588 40.5533 0.32994 40.949 0.275637C41.3524 0.221333 41.748 0.178666 42.1359 0.147636C42.5238 0.108849 42.8845 0.0855757 43.2181 0.0778179L43.5904 0.450182ZM49.5903 27.016C49.1636 27.016 48.7137 26.9966 48.2405 26.9578C47.775 26.919 47.3173 26.8647 46.8674 26.7949V25.3287C47.7828 25.2512 48.5934 25.1348 49.2994 24.9796C50.0053 24.8322 50.6298 24.6034 51.1728 24.2931C51.7159 23.9828 52.193 23.5639 52.6041 23.0364C53.023 22.5088 53.4031 21.8301 53.7445 21H52.5459L48.3219 9.81746C48.2599 9.64679 48.1707 9.51103 48.0543 9.41018C47.9379 9.30933 47.7944 9.23564 47.6237 9.18909L46.6579 8.92145V7.76945L52.9532 7.78109V8.93309L50.9634 9.27055L54.4543 18.9636L57.5147 9.27055L55.6179 8.92145V7.76945H60.6797V8.92145L59.7256 9.18909C59.5394 9.24339 59.3881 9.31709 59.2717 9.41018C59.1631 9.50327 59.0778 9.65067 59.0157 9.85236L55.0477 21.5004C54.3961 23.3855 53.6591 24.7741 52.8368 25.6662C52.0223 26.5661 50.9401 27.016 49.5903 27.016ZM74.5208 16.1593C74.5208 16.8032 74.3967 17.4393 74.1484 18.0676C73.9002 18.696 73.5201 19.2545 73.0081 19.7433C72.4961 20.232 71.8406 20.6276 71.0415 20.9302C70.2425 21.2327 69.2961 21.384 68.2023 21.384C66.9766 21.384 65.8711 21.225 64.8859 20.9069C63.9007 20.5811 63.1055 20.2359 62.5004 19.8713C62.4694 19.1265 62.4733 18.3702 62.5121 17.6022C62.5509 16.8264 62.6207 16.0662 62.7215 15.3215H64.2692L64.6997 18.0444C64.723 18.1685 64.7618 18.3004 64.8161 18.44C64.8781 18.5796 64.979 18.7193 65.1186 18.8589C65.4212 19.1692 65.8633 19.4524 66.4452 19.7084C67.027 19.9644 67.6786 20.0924 68.4001 20.0924C69.5327 20.0924 70.3938 19.8131 70.9833 19.2545C71.5807 18.6882 71.8793 17.928 71.8793 16.9738C71.8793 16.4153 71.7785 15.9343 71.5768 15.5309C71.3751 15.1275 71.0958 14.7707 70.739 14.4604C70.3821 14.1501 69.9477 13.863 69.4357 13.5993C68.9315 13.3355 68.3729 13.064 67.7601 12.7847C67.1938 12.521 66.6158 12.2339 66.0262 11.9236C65.4367 11.6133 64.9053 11.2487 64.4321 10.8298C63.9589 10.4109 63.5671 9.91442 63.2568 9.34036C62.9542 8.75855 62.803 8.07588 62.803 7.29236C62.803 6.60194 62.931 5.96582 63.187 5.384C63.443 4.79443 63.8192 4.29018 64.3157 3.87127C64.8122 3.44461 65.4328 3.11103 66.1775 2.87055C66.9222 2.63006 67.7833 2.50982 68.7608 2.50982C69.6064 2.50982 70.4597 2.59903 71.3208 2.77745C72.1896 2.94812 72.9266 3.18085 73.5317 3.47564C73.586 4.24364 73.5938 4.98836 73.555 5.70982C73.5239 6.42352 73.458 7.11782 73.3572 7.79273H71.8677L71.4139 5.40727C71.3829 5.25988 71.3286 5.11636 71.251 4.97673C71.1812 4.82933 71.0687 4.69358 70.9135 4.56945C70.673 4.36 70.3201 4.1777 69.8546 4.02255C69.3892 3.85964 68.8849 3.77818 68.3419 3.77818C67.3334 3.77818 66.5654 4.01867 66.0379 4.49964C65.5104 4.97285 65.2466 5.64 65.2466 6.50109C65.2466 7.02861 65.3397 7.48242 65.5259 7.86255C65.7198 8.23491 65.9991 8.57624 66.3637 8.88655C66.7283 9.18909 67.1744 9.48 67.7019 9.75927C68.2372 10.0385 68.8461 10.3411 69.5288 10.6669C70.1572 10.9617 70.77 11.2798 71.3673 11.6211C71.9724 11.9547 72.5038 12.3348 72.9615 12.7615C73.427 13.1881 73.8032 13.6807 74.0903 14.2393C74.3773 14.7901 74.5208 15.4301 74.5208 16.1593ZM81.1493 21.1978L77.4955 9.74764C77.4412 9.57697 77.3558 9.44509 77.2395 9.352C77.1308 9.25891 76.9873 9.18521 76.8089 9.13091L76.0642 8.92145V7.76945H81.7311V8.92145L79.9275 9.27055L82.6271 18.5913L85.6293 7.76945H86.1529H87.9565L90.9355 18.5913L93.5536 9.28218L91.7384 8.92145V7.76945H96.5325V8.92145L95.7529 9.13091C95.5745 9.17745 95.4271 9.25115 95.3107 9.352C95.2021 9.45285 95.1207 9.58861 95.0664 9.75927L91.5755 21.1978H89.446L86.3158 10.6669L83.3253 21.1978H81.1493ZM102.354 19.6269C102.912 19.6269 103.479 19.5222 104.053 19.3127C104.627 19.0955 105.115 18.8201 105.519 18.4865V15.3796L103.296 15.5775C102.358 15.655 101.636 15.8684 101.132 16.2175C100.635 16.5665 100.387 17.0979 100.387 17.8116C100.387 18.3857 100.546 18.8318 100.864 19.1498C101.19 19.4679 101.687 19.6269 102.354 19.6269ZM107.73 21.1978C107.171 21.1978 106.714 21.0582 106.357 20.7789C106 20.4919 105.752 20.0768 105.612 19.5338C105.123 20.0613 104.514 20.4841 103.785 20.8022C103.056 21.1125 102.276 21.2676 101.446 21.2676C100.919 21.2676 100.426 21.1978 99.9683 21.0582C99.5106 20.9185 99.115 20.7168 98.7814 20.4531C98.4556 20.1816 98.1957 19.848 98.0017 19.4524C97.8156 19.049 97.7225 18.5913 97.7225 18.0793C97.7225 17.4044 97.8776 16.8381 98.1879 16.3804C98.4982 15.9227 98.8977 15.5542 99.3865 15.2749C99.883 14.9956 100.434 14.7862 101.039 14.6465C101.652 14.5069 102.253 14.4138 102.842 14.3673L105.519 14.1462V12.5753C105.519 11.3806 105.278 10.5389 104.797 10.0502C104.324 9.56145 103.599 9.31709 102.621 9.31709C101.884 9.31709 101.186 9.44121 100.527 9.68946C99.8752 9.92994 99.2701 10.3101 98.7116 10.8298L98.1181 10.2364C98.2655 9.79418 98.506 9.40242 98.8396 9.06109C99.1731 8.712 99.5649 8.42109 100.015 8.18836C100.473 7.95564 100.985 7.78109 101.551 7.66473C102.117 7.54061 102.707 7.47855 103.32 7.47855C104.863 7.47855 106.023 7.8703 106.799 8.65382C107.575 9.42958 107.962 10.6204 107.962 12.2262V18.8124C107.962 19.0606 108.017 19.2429 108.125 19.3593C108.242 19.4679 108.409 19.5338 108.626 19.5571L109.964 19.6735V20.7789C109.77 20.8487 109.44 20.9341 108.975 21.0349C108.517 21.1435 108.102 21.1978 107.73 21.1978ZM118.433 19.9527C119.635 19.9527 120.605 19.5377 121.342 18.7076C122.079 17.8698 122.459 16.423 122.482 14.3673C122.498 12.6218 122.219 11.3108 121.645 10.4342C121.078 9.55758 120.198 9.11927 119.003 9.11927C118.352 9.11927 117.774 9.22788 117.269 9.44509C116.765 9.6623 116.358 9.91442 116.048 10.2015V19.3825C116.319 19.5532 116.66 19.6928 117.072 19.8015C117.49 19.9023 117.944 19.9527 118.433 19.9527ZM118.619 25.5964V26.7716H111.498V25.5964L112.941 25.3636C113.142 25.3326 113.294 25.255 113.394 25.1309C113.503 25.0145 113.557 24.8555 113.557 24.6538V10.2131C113.557 10.0114 113.507 9.84461 113.406 9.71273C113.313 9.58085 113.169 9.49939 112.976 9.46836L111.335 9.23564V8.09527C111.979 7.90909 112.646 7.7617 113.336 7.65309C114.034 7.54449 114.709 7.4863 115.361 7.47855L115.78 7.88582L115.954 9.224C116.381 8.712 116.92 8.28145 117.572 7.93236C118.231 7.58327 119.034 7.40873 119.981 7.40873C120.718 7.40873 121.4 7.53285 122.029 7.78109C122.665 8.02158 123.212 8.39782 123.669 8.90982C124.127 9.42182 124.488 10.0812 124.752 10.888C125.015 11.687 125.147 12.6373 125.147 13.7389C125.147 14.9103 124.992 15.9653 124.682 16.904C124.371 17.8349 123.925 18.6223 123.344 19.2662C122.769 19.9101 122.06 20.4065 121.214 20.7556C120.376 21.097 119.43 21.2676 118.375 21.2676C118.018 21.2676 117.63 21.2405 117.211 21.1862C116.8 21.1396 116.412 21.0621 116.048 20.9535V24.6655C116.048 24.8672 116.102 25.0262 116.21 25.1425C116.319 25.2667 116.478 25.3404 116.688 25.3636L118.619 25.5964Z" fill="black"/>
</svg>
